<svg width="196" height="108" viewBox="0 0 196 108" fill="none" xmlns="http://www.w3.org/2000/svg">
<path d="M97 56.3145L146 28.3145V61.3145L97 74.3145V56.3145Z" fill="#595959"/>
<path d="M97 56.3145L48 28.3145V61.3145L97 74.3145V56.3145Z" fill="#595959"/>
<path d="M184 72.4014V67.3145H196V79.3145H195.975L196.003 79.3311L147.062 107.583L134.829 100.52C132.062 98.9205 130.547 97.5013 130.196 96.3145H130V83.3145H137.125C132.975 81.5003 128.003 81.2918 124.55 83.2881C121.615 84.9812 124.059 86.9546 121.614 88.3672C119.17 89.7798 115.252 89.2188 110.363 86.3936L98.1309 79.3311L98.1592 79.3145H98V67.3145H141V72.8809C143.34 70.6454 143.326 68.1306 140.209 66.3369C137.274 64.6438 133.945 67.7493 131.5 66.3369C129.055 64.9243 141.111 66.1397 146 63.3145L147.062 51.0781L184 72.4014ZM142 90.8232C142.904 89.6243 142.859 88.2752 142 86.959V90.8232Z" fill="#6C7200"/>
<path d="M147.062 39.0559L196.003 67.3084L147.062 95.5608L134.829 88.4977C129.94 85.6725 128.958 83.4083 131.403 81.9957C133.847 80.583 137.274 81.9957 140.209 80.3025C144.126 78.0483 143.144 74.652 138.746 72.1073C134.338 69.5726 128.467 69.0015 124.55 71.2657C121.614 72.9589 124.059 74.9325 121.614 76.3452C119.17 77.7578 115.253 77.1967 110.364 74.3715L98.1309 67.3084L110.364 60.2453C115.253 57.42 119.17 56.859 121.614 58.2716C124.059 59.6842 121.614 61.6579 124.55 63.351C128.467 65.6152 134.338 65.0442 138.746 62.5095C143.144 59.9647 144.126 56.5684 140.209 54.3142C137.274 52.6211 133.847 54.0337 131.403 52.6211C128.958 51.2085 129.94 48.9443 134.829 46.119L147.062 39.0559Z" fill="#A5AF00"/>
<path d="M12.0029 72.6599V67.573H0.00292969V79.573H0.0283203L0 79.5896L48.9414 107.842L61.1738 100.778C63.9408 99.1791 65.4556 97.7599 65.8066 96.573H66.0029V83.573H58.8779C63.0275 81.7588 67.9994 81.5504 71.4531 83.5466C74.3883 85.2398 71.9442 87.2131 74.3887 88.6257C76.8332 90.0383 80.7506 89.4773 85.6396 86.6521L97.8721 79.5896L97.8438 79.573H98.0029V67.573H55.0029V73.1394C52.6633 70.9039 52.6771 68.3891 55.7939 66.5955C58.7293 64.9024 62.0584 68.0078 64.5029 66.5955C66.9475 65.1828 54.892 66.3982 50.0029 63.573L48.9414 51.3367L12.0029 72.6599ZM54.0029 91.0818C53.0992 89.8828 53.144 88.5338 54.0029 87.2175V91.0818Z" fill="#97A100"/>
<path d="M48.9412 39.3145L0.00031168 67.5669L48.9412 95.8194L61.1739 88.7563C66.063 85.931 67.0448 83.6668 64.6003 82.2542C62.1557 80.8416 58.7294 82.2542 55.7939 80.5611C51.8766 78.3069 52.8585 74.9106 57.2566 72.3658C61.6648 69.8311 67.5357 69.2601 71.453 71.5243C74.3885 73.2174 71.9439 75.1911 74.3885 76.6037C76.833 78.0163 80.7503 77.4553 85.6394 74.63L97.8721 67.5669L85.6394 60.5038C80.7503 57.6786 76.833 57.1175 74.3885 58.5301C71.9439 59.9428 74.3885 61.9164 71.453 63.6096C67.5357 65.8738 61.6648 65.3027 57.2566 62.768C52.8585 60.2233 51.8766 56.827 55.7939 54.5728C58.7294 52.8796 62.1557 54.2923 64.6003 52.8796C67.0448 51.467 66.063 49.2028 61.1739 46.3776L48.9412 39.3145Z" fill="#C7D300"/>
<path d="M60.5 51.3145L52.5 46.8145V58.3145C52.5 58.3145 58 66.3145 54.5 55.8145C54.3254 55.2905 56 56.8145 56 56.8145L59.5 57.8145L60.5 51.3145Z" fill="#595959"/>
<path d="M133 52.8145L141.5 46.8145V55.3145L138 57.8145L134 59.3145L133 52.8145Z" fill="#595959"/>
<path d="M97.0051 0L145.936 28.2525L133.703 35.3156C128.814 38.1408 127.832 40.405 130.277 41.8177C132.731 43.2303 136.158 41.8177 139.093 43.5108C143.001 45.765 142.029 49.1613 137.621 51.706C133.212 54.2407 127.341 54.8118 123.434 52.5476C120.499 50.8544 122.943 48.8808 120.499 47.4682C118.044 46.0555 114.137 46.6166 109.238 49.4418L97.0051 56.5049L84.7724 49.4418C79.8733 46.6166 75.966 46.0555 73.5115 47.4682C71.0669 48.8808 73.5115 50.8544 70.576 52.5476C66.6688 54.8118 60.7978 54.2407 56.3897 51.706C51.9815 49.1613 51.0097 45.765 54.9169 43.5108C57.8524 41.8177 61.2787 43.2303 63.7333 41.8177C66.1778 40.405 65.196 38.1408 60.3069 35.3156L48.0742 28.2525L97.0051 0Z" fill="#C7C7C9"/>
</svg>
